<svg width="60" height="60" viewBox="0 0 60 60" fill="none" xmlns="http://www.w3.org/2000/svg">
<path d="M52.75 27.625L32.375 7.25C31.75 6.625 30.875 6.25 30 6.25C29.125 6.25 28.25 6.625 27.625 7.25L23.25 11.625L28.375 16.75C28.875 16.5 29.375 16.375 30 16.375C32.125 16.375 33.75 18 33.75 20.125C33.75 20.75 33.625 21.25 33.375 21.75L38.375 26.75C38.875 26.5 39.375 26.375 40 26.375C42.125 26.375 43.75 28 43.75 30.125C43.75 32.25 42.125 33.875 40 33.875C37.875 33.875 36.25 32.25 36.25 30.125C36.25 29.5 36.375 29 36.625 28.5L31.625 23.5C31.5 23.5 31.375 23.625 31.25 23.625V36.625C32.75 37.125 33.75 38.5 33.75 40.125C33.75 42.25 32.125 43.875 30 43.875C27.875 43.875 26.25 42.25 26.25 40.125C26.25 38.5 27.25 37.125 28.75 36.625V23.5C27.25 23 26.25 21.625 26.25 20C26.25 19.375 26.375 18.875 26.625 18.375L21.5 13.25L7.25 27.625C6.625 28.25 6.25 29.125 6.25 30C6.25 30.875 6.625 31.75 7.25 32.375L27.625 52.75C28.25 53.375 29.125 53.75 30 53.75C30.875 53.75 31.75 53.375 32.375 52.75L52.75 32.375C53.375 31.75 53.75 30.875 53.75 30C53.75 29.125 53.375 28.25 52.75 27.625Z" fill="#F4511E"/>
</svg>
