<svg width="60" height="60" viewBox="0 0 60 60" fill="none" xmlns="http://www.w3.org/2000/svg">
<path d="M8.75 51.25V8.75C8.75 5.98875 10.9887 3.75 13.75 3.75H46.25C49.0112 3.75 51.25 5.98125 51.25 8.7425C51.25 18.765 51.25 41.2313 51.25 51.255C51.25 54.0175 49.0112 56.25 46.25 56.25H13.75C10.9887 56.25 8.75 54.0112 8.75 51.25Z" fill="#7E57C2"/>
<path d="M35.365 49.0262V28.1762C35.365 28.1762 36.7213 23.1875 18.66 30.2175C18.6275 30.3062 18.6275 10.9375 18.6275 10.9375L24.5288 10.9012V23.3112C24.5288 23.3112 41.0513 16.8037 41.0513 28.2462V49.025L35.365 49.0262ZM38.7275 18.4125H32.4688C34.7213 15.6575 36.7613 10.9375 36.7613 10.9375H43.2338C43.2325 10.9387 42.125 14.0137 38.7275 18.4125ZM18.7338 48.99V37.1175L24.6713 43.055L18.7338 48.99Z" fill="white"/>
</svg>
