<svg width="60" height="60" viewBox="0 0 60 60" fill="none" xmlns="http://www.w3.org/2000/svg">
<path d="M51.25 6.25H8.75L12.5 48.75L30 53.75L47.5 48.75L51.25 6.25Z" fill="#E65100"/>
<path d="M30 10V49.875L44 45.875L47.125 10H30Z" fill="#FF6D00"/>
<path d="M30 31.25V26.25H40.75L39.875 40.625L30 43.875V38.625L35.125 36.875L35.5 31.25H30ZM41.125 21.25L41.5 16.25H30V21.25H41.125Z" fill="white"/>
<path d="M30.125 38.875V44.125L20.25 40.875L19.75 34H24.75L25 37.125L30.125 38.875ZM24 21.5H30.125V16.5H18.75L19.625 31.5H30.125V26.5H24.375L24 21.5Z" fill="#EEEEEE"/>
</svg>
