<svg width="22" height="25" viewBox="0 0 22 25" fill="none" xmlns="http://www.w3.org/2000/svg">
<g clip-path="url(#clip0)">
<path d="M10.9424 6.88476C7.8369 6.88476 5.33202 9.38964 5.33202 12.4951C5.33202 15.6006 7.8369 18.1055 10.9424 18.1055C14.0478 18.1055 16.5527 15.6006 16.5527 12.4951C16.5527 9.38964 14.0478 6.88476 10.9424 6.88476ZM10.9424 16.1426C8.93553 16.1426 7.29491 14.5068 7.29491 12.4951C7.29491 10.4834 8.93065 8.84765 10.9424 8.84765C12.9541 8.84765 14.5898 10.4834 14.5898 12.4951C14.5898 14.5068 12.9492 16.1426 10.9424 16.1426ZM18.0908 6.65526C18.0908 7.3828 17.5049 7.96386 16.7822 7.96386C16.0547 7.96386 15.4736 7.37792 15.4736 6.65526C15.4736 5.93261 16.0595 5.34667 16.7822 5.34667C17.5049 5.34667 18.0908 5.93261 18.0908 6.65526ZM21.8066 7.98339C21.7236 6.23046 21.3232 4.67772 20.039 3.39843C18.7597 2.11913 17.207 1.71874 15.4541 1.63085C13.6474 1.52831 8.23241 1.52831 6.42577 1.63085C4.67773 1.71386 3.125 2.11425 1.84082 3.39354C0.55664 4.67284 0.161133 6.22558 0.0732421 7.97851C-0.0292968 9.78515 -0.0292968 15.2002 0.0732421 17.0068C0.15625 18.7598 0.55664 20.3125 1.84082 21.5918C3.125 22.8711 4.67285 23.2715 6.42577 23.3594C8.23241 23.4619 13.6474 23.4619 15.4541 23.3594C17.207 23.2764 18.7597 22.876 20.039 21.5918C21.3183 20.3125 21.7187 18.7598 21.8066 17.0068C21.9092 15.2002 21.9092 9.79003 21.8066 7.98339ZM19.4726 18.9453C19.0918 19.9023 18.3545 20.6396 17.3926 21.0254C15.9521 21.5967 12.5342 21.4648 10.9424 21.4648C9.35057 21.4648 5.92773 21.5918 4.49218 21.0254C3.53515 20.6445 2.79785 19.9072 2.41211 18.9453C1.84082 17.5049 1.97265 14.0869 1.97265 12.4951C1.97265 10.9033 1.8457 7.48046 2.41211 6.04491C2.79296 5.08788 3.53027 4.35058 4.49218 3.96483C5.93261 3.39354 9.35057 3.52538 10.9424 3.52538C12.5342 3.52538 15.957 3.39843 17.3926 3.96483C18.3496 4.34569 19.0869 5.083 19.4726 6.04491C20.0439 7.48534 19.9121 10.9033 19.9121 12.4951C19.9121 14.0869 20.0439 17.5098 19.4726 18.9453Z" fill="white"/>
</g>
<defs>
<clipPath id="clip0">
<rect width="21.875" height="25" fill="white"/>
</clipPath>
</defs>
</svg>
