<svg width="60" height="60" viewBox="0 0 60 60" fill="none" xmlns="http://www.w3.org/2000/svg">
<path d="M7.5 52.5V7.5H52.5V52.5H7.5Z" fill="#FFD600"/>
<path d="M36.9225 41.1838C37.7875 42.5888 38.7275 43.935 40.7187 43.935C42.3912 43.935 43.2687 43.1038 43.2687 41.9538C43.2687 40.5775 42.3612 40.0888 40.5212 39.2875L39.5125 38.8575C36.6012 37.6225 34.665 36.075 34.665 32.8063C34.665 29.7938 36.9712 27.5012 40.575 27.5012C43.1412 27.5012 44.985 28.39 46.315 30.7175L43.1725 32.7263C42.4812 31.4913 41.7337 31.005 40.575 31.005C39.3925 31.005 38.6437 31.7513 38.6437 32.7263C38.6437 33.9313 39.3937 34.4188 41.125 35.165L42.1337 35.595C45.565 37.0563 47.5 38.5488 47.5 41.9038C47.5 45.5188 44.645 47.5 40.8125 47.5C37.0637 47.5 34.935 45.6188 33.75 43.29L36.9225 41.1838ZM22.44 41.2863C23.0725 42.4188 24.0337 43.29 25.4162 43.29C26.7387 43.29 27.5 42.7675 27.5 40.7363V27.5H31.6662V41.3763C31.6662 45.585 29.225 47.5 25.66 47.5C22.4387 47.5 20.1137 45.3175 19.1662 43.29L22.44 41.2863Z" fill="#000001"/>
</svg>
