<svg width="60" height="60" viewBox="0 0 60 60" fill="none" xmlns="http://www.w3.org/2000/svg">
<path d="M30.0587 6.24997C28.115 6.25622 26.7675 6.42747 25.1387 6.70872C20.3287 7.54622 19.4525 9.30497 19.4525 12.5462V17.5H30.7025V20H19.025H13.5875C10.2925 20 7.40875 21.5525 6.495 25.2737C5.4625 29.545 5.41625 32.22 6.495 36.68C7.31375 40.0062 9.1175 42.5 12.4137 42.5H16.9537V36.12C16.9537 32.4125 20.3112 28.75 24.1587 28.75H33.2037C36.3575 28.75 39.4537 26.4225 39.4537 23.2787V12.5462C39.4537 9.49747 37.255 7.21747 34.1812 6.70622C34.2575 6.69872 31.9862 6.24247 30.0587 6.24997ZM23.8287 11.25C24.855 11.25 25.7037 12.0962 25.7037 13.1275C25.7037 14.1687 24.855 15 23.8287 15C22.7825 15 21.9537 14.17 21.9537 13.1275C21.9537 12.1 22.7825 11.25 23.8287 11.25Z" fill="#0277BD"/>
<path d="M28.8475 53.75C30.7912 53.7438 32.1387 53.5725 33.7675 53.2913C38.5775 52.4538 39.4537 50.695 39.4537 47.4538V42.5H28.2037V40H39.8825H45.32C48.615 40 51.4987 38.4475 52.4125 34.7263C53.445 30.455 53.4912 27.78 52.4125 23.32C51.5925 19.9938 49.7887 17.5 46.4925 17.5H41.9525V23.88C41.9525 27.5875 38.595 31.25 34.7475 31.25H25.7025C22.5487 31.25 19.4525 33.5775 19.4525 36.7213V47.4538C19.4525 50.5025 21.6512 52.7825 24.725 53.2938C24.6487 53.3013 26.92 53.7575 28.8475 53.75ZM35.0787 48.75C34.0525 48.75 33.2037 47.9038 33.2037 46.8725C33.2037 45.8313 34.0525 45 35.0787 45C36.125 45 36.9537 45.83 36.9537 46.8725C36.9537 47.9 36.1237 48.75 35.0787 48.75Z" fill="#FFC107"/>
</svg>
