<svg width="60" height="60" viewBox="0 0 60 60" fill="none" xmlns="http://www.w3.org/2000/svg">
<path d="M7.5 12.5C7.5 9.73875 9.73875 7.5 12.5 7.5H47.5C50.2612 7.5 52.5 9.73875 52.5 12.5V47.5C52.5 50.2612 50.2612 52.5 47.5 52.5H12.5C9.73875 52.5 7.5 50.2612 7.5 47.5V12.5Z" fill="#FF5722"/>
<path d="M11.25 11.25V48.75H48.75V11.25H11.25ZM29.6138 38.75L28.6613 35.1125H23.7663L22.815 38.75H19.0188L24.5725 20.9762H27.8563L33.4475 38.75H29.6138ZM38.5625 38.75H35.0962V25.5425H38.5625V38.75ZM38.19 23.4425C37.8512 23.7925 37.395 23.9675 36.8162 23.9675C36.2375 23.9675 35.7812 23.7925 35.4425 23.4425C35.1038 23.0925 34.9362 22.6525 34.9362 22.1237C34.9362 21.5862 35.1075 21.1475 35.4487 20.805C35.79 20.4625 36.2475 20.2925 36.8162 20.2925C37.385 20.2925 37.8413 20.4637 38.1838 20.805C38.5263 21.1462 38.6963 21.5862 38.6963 22.1237C38.6963 22.6525 38.5275 23.0925 38.19 23.4425Z" fill="#1C0802"/>
<path d="M24.5488 32.1213H27.8688L26.2088 25.7863L24.5488 32.1213Z" fill="#1C0802"/>
</svg>
