<svg width="25" height="25" viewBox="0 0 25 25" fill="none" xmlns="http://www.w3.org/2000/svg">
<g clip-path="url(#clip0)">
<path d="M8.10059 19.4043C8.10059 19.502 7.98828 19.5801 7.84668 19.5801C7.68555 19.5947 7.57324 19.5166 7.57324 19.4043C7.57324 19.3066 7.68555 19.2285 7.82715 19.2285C7.97363 19.2139 8.10059 19.292 8.10059 19.4043ZM6.58203 19.1846C6.54785 19.2822 6.64551 19.3945 6.79199 19.4238C6.91895 19.4727 7.06543 19.4238 7.09473 19.3262C7.12402 19.2285 7.03125 19.1162 6.88477 19.0723C6.75781 19.0381 6.61621 19.0869 6.58203 19.1846ZM8.74023 19.1016C8.59863 19.1357 8.50098 19.2285 8.51562 19.3408C8.53027 19.4385 8.65723 19.502 8.80371 19.4678C8.94531 19.4336 9.04297 19.3408 9.02832 19.2432C9.01367 19.1504 8.88184 19.0869 8.74023 19.1016ZM11.9531 0.390625C5.18066 0.390625 0 5.53223 0 12.3047C0 17.7197 3.4082 22.3535 8.27637 23.9844C8.90137 24.0967 9.12109 23.7109 9.12109 23.3936C9.12109 23.0908 9.10645 21.4209 9.10645 20.3955C9.10645 20.3955 5.68848 21.1279 4.9707 18.9404C4.9707 18.9404 4.41406 17.5195 3.61328 17.1533C3.61328 17.1533 2.49512 16.3867 3.69141 16.4014C3.69141 16.4014 4.90723 16.499 5.57617 17.6611C6.64551 19.5459 8.4375 19.0039 9.13574 18.6816C9.24805 17.9004 9.56543 17.3584 9.91699 17.0361C7.1875 16.7334 4.43359 16.3379 4.43359 11.6406C4.43359 10.2979 4.80469 9.62402 5.58594 8.76465C5.45898 8.44727 5.04395 7.13867 5.71289 5.44922C6.7334 5.13184 9.08203 6.76758 9.08203 6.76758C10.0586 6.49414 11.1084 6.35254 12.1484 6.35254C13.1885 6.35254 14.2383 6.49414 15.2148 6.76758C15.2148 6.76758 17.5635 5.12695 18.584 5.44922C19.2529 7.14355 18.8379 8.44727 18.7109 8.76465C19.4922 9.62891 19.9707 10.3027 19.9707 11.6406C19.9707 16.3525 17.0947 16.7285 14.3652 17.0361C14.8145 17.4219 15.1953 18.1543 15.1953 19.3018C15.1953 20.9473 15.1807 22.9834 15.1807 23.3838C15.1807 23.7012 15.4053 24.0869 16.0254 23.9746C20.9082 22.3535 24.2188 17.7197 24.2188 12.3047C24.2188 5.53223 18.7256 0.390625 11.9531 0.390625ZM4.74609 17.2314C4.68262 17.2803 4.69727 17.3926 4.78027 17.4854C4.8584 17.5635 4.9707 17.5977 5.03418 17.5342C5.09766 17.4854 5.08301 17.373 5 17.2803C4.92188 17.2021 4.80957 17.168 4.74609 17.2314ZM4.21875 16.8359C4.18457 16.8994 4.2334 16.9775 4.33105 17.0264C4.40918 17.0752 4.50684 17.0605 4.54102 16.9922C4.5752 16.9287 4.52637 16.8506 4.42871 16.8018C4.33105 16.7725 4.25293 16.7871 4.21875 16.8359ZM5.80078 18.5742C5.72266 18.6377 5.75195 18.7842 5.86426 18.877C5.97656 18.9893 6.11816 19.0039 6.18164 18.9258C6.24512 18.8623 6.21582 18.7158 6.11816 18.623C6.01074 18.5107 5.86426 18.4961 5.80078 18.5742ZM5.24414 17.8564C5.16602 17.9053 5.16602 18.0322 5.24414 18.1445C5.32227 18.2568 5.4541 18.3057 5.51758 18.2568C5.5957 18.1934 5.5957 18.0664 5.51758 17.9541C5.44922 17.8418 5.32227 17.793 5.24414 17.8564Z" fill="white"/>
</g>
<defs>
<clipPath id="clip0">
<rect width="25" height="25" fill="white"/>
</clipPath>
</defs>
</svg>
