<svg width="60" height="60" viewBox="0 0 60 60" fill="none" xmlns="http://www.w3.org/2000/svg">
<path d="M30 42.5C13.875 42.5 1.25 37 1.25 30C1.25 23 13.875 17.5 30 17.5C46.125 17.5 58.75 23 58.75 30C58.75 37 46.125 42.5 30 42.5ZM30 20C14.25 20 3.75 25.125 3.75 30C3.75 34.875 14.25 40 30 40C45.75 40 56.25 34.875 56.25 30C56.25 25.125 45.75 20 30 20Z" fill="#80DEEA"/>
<path d="M18.875 55.75C17.625 55.75 16.625 55.5 15.625 54.875C9.50001 51.375 11.125 37.75 19.125 23.75C22.875 17.25 27.5 11.75 32 8.25001C36.875 4.50001 41.25 3.37501 44.25 5.12501C47.375 6.87501 48.5 11.25 47.75 17.375C47 23.125 44.5 29.875 40.75 36.375C37 42.875 32.375 48.375 27.875 51.875C24.625 54.375 21.5 55.75 18.875 55.75ZM41.125 6.75001C39.125 6.75001 36.5 7.87501 33.625 10.125C29.375 13.5 25 18.75 21.375 25C13.5 38.625 12.75 50.375 16.875 52.75C19 54 22.5 52.875 26.375 49.875C30.625 46.5 35 41.25 38.625 35C42.25 28.75 44.625 22.375 45.375 17C46 12 45.25 8.50001 43.125 7.25001C42.5 7.00001 41.875 6.75001 41.125 6.75001Z" fill="#80DEEA"/>
<path d="M41.25 55.75C35 55.75 26 48.125 19.25 36.25C11.125 22.25 9.50001 8.62503 15.625 5.12503C21.75 1.62503 32.75 9.75003 40.875 23.75C44.625 30.25 47.125 37 47.875 42.75C48.75 48.875 47.5 53.125 44.375 55C43.375 55.5 42.375 55.75 41.25 55.75ZM16.875 7.25003C12.75 9.62503 13.5 21.375 21.375 35C29.25 48.625 39 55.125 43.125 52.75C45.25 51.5 46 48 45.375 43C44.625 37.625 42.25 31.25 38.625 25C30.75 11.375 21 4.87503 16.875 7.25003Z" fill="#80DEEA"/>
<path d="M30 35C32.7614 35 35 32.7614 35 30C35 27.2386 32.7614 25 30 25C27.2386 25 25 27.2386 25 30C25 32.7614 27.2386 35 30 35Z" fill="#80DEEA"/>
</svg>
