<svg width="60" height="60" viewBox="0 0 60 60" fill="none" xmlns="http://www.w3.org/2000/svg">
<path d="M49.8337 32.4449C47.9113 32.4549 46.2463 32.9162 44.8512 33.6049C44.3412 32.5862 43.8237 31.6899 43.7375 31.0237C43.6362 30.2462 43.5187 29.7812 43.6412 28.8549C43.7637 27.9287 44.3 26.6162 44.2925 26.5174C44.285 26.4187 44.1725 25.9474 43.0637 25.9387C41.955 25.9312 41.0062 26.1524 40.895 26.4449C40.7837 26.7374 40.57 27.3962 40.4375 28.0837C40.2437 29.0887 38.2238 32.6749 37.0775 34.5499C36.7025 33.8174 36.3838 33.1724 36.3175 32.6624C36.2163 31.8849 36.0987 31.4199 36.2212 30.4937C36.3438 29.5674 36.88 28.2549 36.8725 28.1562C36.865 28.0574 36.7525 27.5862 35.6437 27.5774C34.535 27.5699 33.5863 27.7912 33.475 28.0837C33.3638 28.3762 33.2437 29.0599 33.0175 29.7224C32.79 30.3837 30.1062 36.3649 29.4025 37.9162C29.0437 38.7062 28.7325 39.3412 28.5125 39.7737C28.5112 39.7724 28.5112 39.7712 28.5112 39.7712C28.5112 39.7712 28.4975 39.7999 28.475 39.8487C28.2862 40.2174 28.175 40.4212 28.175 40.4212C28.175 40.4212 28.1762 40.4237 28.1787 40.4287C28.0287 40.6999 27.8687 40.9512 27.79 40.9512C27.735 40.9512 27.6237 40.2299 27.8137 39.2399C28.2137 37.1649 29.1725 33.9299 29.1637 33.8174C29.1587 33.7599 29.3425 33.1962 28.5375 32.9012C27.755 32.6149 27.4762 33.0924 27.405 33.0937C27.3362 33.0949 27.285 33.2624 27.285 33.2624C27.285 33.2624 28.1562 29.6237 25.6225 29.6237C24.0375 29.6237 21.8425 31.3574 20.7612 32.9287C20.0787 33.3012 18.6175 34.0987 17.0687 34.9499C16.4737 35.2774 15.8662 35.6112 15.29 35.9287C15.2512 35.8849 15.2112 35.8424 15.1712 35.7987C12.0975 32.5199 6.4175 30.2012 6.6575 25.7924C6.745 24.1899 7.3025 19.9699 17.5737 14.8524C25.9875 10.6599 32.7238 11.8137 33.8875 14.3699C35.55 18.0237 30.2875 24.8124 21.55 25.7924C18.2212 26.1662 16.4675 24.8749 16.0312 24.3949C15.5725 23.8887 15.5037 23.8662 15.3325 23.9612C15.0537 24.1162 15.23 24.5624 15.3325 24.8287C15.5937 25.5074 16.6637 26.7112 18.4887 27.3112C20.095 27.8387 24.0037 28.1274 28.73 26.2987C34.025 24.2512 38.1587 18.5537 36.9437 13.7924C35.7088 8.94995 27.6787 7.35744 20.0787 10.0574C15.55 11.6649 10.6537 14.1874 7.1325 17.4799C2.94625 21.3949 2.27875 24.8037 2.55375 26.2274C3.53125 31.2874 10.505 34.5824 13.2975 37.0237C13.16 37.0999 13.03 37.1712 12.9125 37.2362C11.5125 37.9287 6.19625 40.7112 4.86625 43.6499C3.3575 46.9837 5.10625 49.3762 6.26375 49.6987C9.85 50.6962 13.53 48.9012 15.5087 45.9512C17.4862 43.0024 17.245 39.1612 16.3375 37.4087C16.3262 37.3874 16.3137 37.3662 16.3025 37.3437C16.6637 37.1299 17.0325 36.9124 17.3975 36.6974C18.11 36.2787 18.81 35.8887 19.4162 35.5587C19.0762 36.4887 18.8275 37.6049 18.6987 39.2162C18.5462 41.1087 19.3225 43.5549 20.3375 44.5174C20.785 44.9412 21.3225 44.9512 21.6625 44.9512C22.8437 44.9512 23.3825 43.9687 23.9762 42.8062C24.7037 41.3812 25.35 39.7212 25.35 39.7212C25.35 39.7212 24.54 44.2037 26.7475 44.2037C27.5525 44.2037 28.3612 43.16 28.7225 42.6287C28.7237 42.6349 28.7237 42.6374 28.7237 42.6374C28.7237 42.6374 28.745 42.6024 28.7862 42.5337C28.87 42.4062 28.9175 42.3249 28.9175 42.3249C28.9175 42.3249 28.9187 42.3162 28.9212 42.3012C29.245 41.7399 29.9625 40.4599 31.0375 38.3487C32.4275 35.6212 33.76 32.2037 33.76 32.2037C33.76 32.2037 33.8837 33.0387 34.29 34.4212C34.5287 35.2337 35.0363 36.1324 35.4375 36.9949C35.115 37.4424 34.9175 37.6987 34.9175 37.6987C34.9175 37.6987 34.9188 37.7037 34.9225 37.7124C34.665 38.0549 34.3763 38.4237 34.0738 38.7837C32.9762 40.0899 31.67 41.5824 31.495 42.0124C31.2887 42.5199 31.3375 42.8924 31.7362 43.1937C32.0275 43.4124 32.545 43.4474 33.0863 43.4112C34.0725 43.3449 34.765 43.0999 35.1075 42.9512C35.6413 42.7624 36.2625 42.4662 36.845 42.0374C37.9212 41.2462 38.57 40.1149 38.5075 38.6149C38.4725 37.7887 38.21 36.9699 37.8763 36.1974C37.9738 36.0574 38.0713 35.9149 38.17 35.7724C39.8662 33.2924 41.1825 30.5674 41.1825 30.5674C41.1825 30.5674 41.3062 31.4024 41.7125 32.7849C41.9175 33.4837 42.3237 34.2474 42.6888 34.9949C41.0938 36.2912 40.105 37.7974 39.7612 38.7849C39.1263 40.6124 39.6237 41.4399 40.5563 41.6287C40.9787 41.7137 41.5762 41.5199 42.025 41.3299C42.5837 41.1449 43.255 40.8362 43.8825 40.3749C44.9587 39.5837 45.9937 38.4762 45.9312 36.9774C45.9025 36.2949 45.7175 35.6174 45.4663 34.9674C46.8187 34.4037 48.5687 34.0912 50.7987 34.3512C55.5825 34.9099 56.52 37.8962 56.3413 39.1462C56.1613 40.3962 55.1588 41.0837 54.8225 41.2912C54.4875 41.4987 54.385 41.5712 54.4125 41.7249C54.4537 41.9487 54.6087 41.9412 54.895 41.8924C55.2887 41.8262 57.4062 40.8762 57.4975 38.5687C57.6113 35.6362 54.805 32.4187 49.8337 32.4449ZM12.9625 44.875C11.3775 46.6037 9.165 47.2562 8.215 46.7062C7.19 46.1124 7.59625 43.5675 9.54 41.7324C10.725 40.615 12.255 39.5849 13.27 38.9512C13.5012 38.8124 13.84 38.6087 14.2525 38.3612C14.3212 38.3224 14.36 38.3012 14.36 38.3012L14.3587 38.2987C14.4387 38.2512 14.52 38.2024 14.6037 38.1512C15.3125 40.7624 14.6262 43.0612 12.9625 44.875ZM24.5062 37.0287C23.955 38.3737 22.8 41.8162 22.0962 41.6312C21.4925 41.4724 21.125 38.8562 21.9762 36.2812C22.4037 34.9849 23.3187 33.4362 23.8562 32.8349C24.7212 31.8674 25.6737 31.5512 25.905 31.9437C26.1987 32.4437 24.8525 36.1849 24.5062 37.0287ZM34.0425 41.5787C33.8087 41.7012 33.5937 41.7774 33.495 41.7187C33.4212 41.6749 33.5912 41.5137 33.5912 41.5137C33.5912 41.5137 34.7837 40.2299 35.2537 39.6462C35.5275 39.3062 35.8438 38.9024 36.1888 38.4524C36.1912 38.4974 36.1925 38.5424 36.1925 38.5862C36.19 40.1237 34.705 41.1612 34.0425 41.5787ZM41.3888 39.9037C41.2137 39.7799 41.2437 39.3787 41.8175 38.1274C42.0425 37.6362 42.5575 36.8099 43.45 36.0199C43.5537 36.3449 43.6162 36.6562 43.615 36.9462C43.6037 38.8812 42.2238 39.6037 41.3888 39.9037Z" fill="#F06292"/>
</svg>
