<svg width="60" height="60" viewBox="0 0 60 60" fill="none" xmlns="http://www.w3.org/2000/svg">
<path d="M52.5 7.5H7.5V52.5H52.5V7.5Z" fill="#1976D2"/>
<path d="M34.3625 27.5H17.7838V31.58H23.73V50H28.4413V31.58H34.3625V27.5Z" fill="white"/>
<path d="M48.9925 32.605C48.9925 32.605 46.7587 31.115 44.2337 31.115C41.7087 31.115 40.8 32.315 40.8 33.5975C40.8 36.9075 50.0262 36.5763 50.0262 43.2375C50.0262 53.4988 35.9587 48.9475 35.9587 48.9475V44.025C35.9587 44.025 38.6487 46.0525 41.875 46.0525C45.1012 46.0525 44.9787 43.9425 44.9787 43.6525C44.9787 40.5913 35.835 40.5913 35.835 33.805C35.835 24.5788 49.1575 28.2188 49.1575 28.2188L48.9925 32.605Z" fill="white"/>
</svg>
